<?xml version="1.0" encoding="UTF-8" standalone="no"?>
<!DOCTYPE svg PUBLIC "-//W3C//DTD SVG 1.1//EN" "http://www.w3.org/Graphics/SVG/1.1/DTD/svg11.dtd">
<svg version="1.1" xmlns="http://www.w3.org/2000/svg" xmlns:xlink="http://www.w3.org/1999/xlink" preserveAspectRatio="xMidYMid meet" viewBox="0 0 36 36" width="36" height="36"><defs><path d="M33.97 10.97C35.09 10.97 36 11.88 36 13C36 13.41 36 12.59 36 13C36 14.12 35.09 15.03 33.97 15.03C27.25 15.03 9.12 15.03 2.41 15.03C1.29 15.03 0.38 14.12 0.38 13C0.38 12.59 0.38 13.41 0.38 13C0.38 11.88 1.29 10.97 2.41 10.97C9.12 10.97 27.25 10.97 33.97 10.97Z" id="a2TCDF2vSq"></path><path d="M33.97 20.69C35.09 20.69 36 21.6 36 22.72C36 23.13 36 22.32 36 22.72C36 23.84 35.09 24.75 33.97 24.75C27.25 24.75 9.12 24.75 2.41 24.75C1.29 24.75 0.38 23.84 0.38 22.72C0.38 22.32 0.38 23.13 0.38 22.72C0.38 21.6 1.29 20.69 2.41 20.69C9.12 20.69 27.25 20.69 33.97 20.69Z" id="a4voIfpBlN"></path><path d="M33.97 0.69C35.09 0.69 36 1.6 36 2.72C36 3.12 36 2.31 36 2.72C36 3.84 35.09 4.75 33.97 4.75C27.25 4.75 9.12 4.75 2.41 4.75C1.29 4.75 0.38 3.84 0.38 2.72C0.38 2.31 0.38 3.12 0.38 2.72C0.38 1.6 1.29 0.69 2.41 0.69C9.12 0.69 27.25 0.69 33.97 0.69Z" id="b1zuGTOMYC"></path><path d="M33.78 31.25C34.9 31.25 35.81 32.16 35.81 33.28C35.81 33.68 35.81 32.87 35.81 33.28C35.81 34.4 34.9 35.31 33.78 35.31C27.06 35.31 8.94 35.31 2.22 35.31C1.1 35.31 0.19 34.4 0.19 33.28C0.19 32.87 0.19 33.68 0.19 33.28C0.19 32.16 1.1 31.25 2.22 31.25C8.94 31.25 27.06 31.25 33.78 31.25Z" id="a6cJjVmmV"></path></defs><g><g><g><use xlink:href="#a2TCDF2vSq" opacity="1" fill="#ffffff" fill-opacity="1"></use><g><use xlink:href="#a2TCDF2vSq" opacity="1" fill-opacity="0" stroke="#ffffff" stroke-width="0.5" stroke-opacity="1"></use></g></g><g><use xlink:href="#a4voIfpBlN" opacity="1" fill="#ffffff" fill-opacity="1"></use><g><use xlink:href="#a4voIfpBlN" opacity="1" fill-opacity="0" stroke="#ffffff" stroke-width="0.5" stroke-opacity="1"></use></g></g><g><use xlink:href="#b1zuGTOMYC" opacity="1" fill="#ffffff" fill-opacity="1"></use><g><use xlink:href="#b1zuGTOMYC" opacity="1" fill-opacity="0" stroke="#ffffff" stroke-width="0.5" stroke-opacity="1"></use></g></g><g><use xlink:href="#a6cJjVmmV" opacity="1" fill="#ffffff" fill-opacity="1"></use><g><use xlink:href="#a6cJjVmmV" opacity="1" fill-opacity="0" stroke="#ffffff" stroke-width="0.5" stroke-opacity="1"></use></g></g></g></g></svg>