<?xml version="1.0" encoding="UTF-8" standalone="no"?>
<!DOCTYPE svg PUBLIC "-//W3C//DTD SVG 1.1//EN" "http://www.w3.org/Graphics/SVG/1.1/DTD/svg11.dtd">
<svg version="1.1" xmlns="http://www.w3.org/2000/svg" xmlns:xlink="http://www.w3.org/1999/xlink" preserveAspectRatio="xMidYMid meet" viewBox="0 0 50 50" width="50" height="50"><defs><path d="M40.78 22.97C41.9 22.97 42.81 23.88 42.81 25C42.81 25.41 42.81 24.59 42.81 25C42.81 26.12 41.9 27.03 40.78 27.03C34.06 27.03 15.94 27.03 9.22 27.03C8.1 27.03 7.19 26.12 7.19 25C7.19 24.59 7.19 25.41 7.19 25C7.19 23.88 8.1 22.97 9.22 22.97C15.94 22.97 34.06 22.97 40.78 22.97Z" id="a1gprhrf3j"></path><path d="M40.78 33.82C41.9 33.82 42.81 34.73 42.81 35.85C42.81 36.25 42.81 35.44 42.81 35.85C42.81 36.97 41.9 37.88 40.78 37.88C34.06 37.88 15.94 37.88 9.22 37.88C8.1 37.88 7.19 36.97 7.19 35.85C7.19 35.44 7.19 36.25 7.19 35.85C7.19 34.73 8.1 33.82 9.22 33.82C15.94 33.82 34.06 33.82 40.78 33.82Z" id="ez6kikYXP"></path><path d="M40.78 12.12C41.9 12.12 42.81 13.03 42.81 14.15C42.81 14.56 42.81 13.75 42.81 14.15C42.81 15.27 41.9 16.18 40.78 16.18C34.06 16.18 15.94 16.18 9.22 16.18C8.1 16.18 7.19 15.27 7.19 14.15C7.19 13.75 7.19 14.56 7.19 14.15C7.19 13.03 8.1 12.12 9.22 12.12C15.94 12.12 34.06 12.12 40.78 12.12Z" id="a2uEXnQ1nb"></path></defs><g><g><g><use xlink:href="#a1gprhrf3j" opacity="1" fill="#ffffff" fill-opacity="1"></use><g><use xlink:href="#a1gprhrf3j" opacity="1" fill-opacity="0" stroke="#ffffff" stroke-width="0.5" stroke-opacity="1"></use></g></g><g><use xlink:href="#ez6kikYXP" opacity="1" fill="#ffffff" fill-opacity="1"></use><g><use xlink:href="#ez6kikYXP" opacity="1" fill-opacity="0" stroke="#ffffff" stroke-width="0.5" stroke-opacity="1"></use></g></g><g><use xlink:href="#a2uEXnQ1nb" opacity="1" fill="#ffffff" fill-opacity="1"></use><g><use xlink:href="#a2uEXnQ1nb" opacity="1" fill-opacity="0" stroke="#ffffff" stroke-width="0.5" stroke-opacity="1"></use></g></g></g></g></svg>