<?xml version="1.0" encoding="UTF-8" standalone="no"?>
<!DOCTYPE svg PUBLIC "-//W3C//DTD SVG 1.1//EN" "http://www.w3.org/Graphics/SVG/1.1/DTD/svg11.dtd">
<svg version="1.1" xmlns="http://www.w3.org/2000/svg" xmlns:xlink="http://www.w3.org/1999/xlink" preserveAspectRatio="xMidYMid meet" viewBox="0 0 20 20" width="20" height="20"><defs><path d="M2.52 3.04L17.88 3.04L17.88 17.46L2.52 17.46L2.52 3.04Z" id="b5xlGnNYP3"></path><path d="M14.84 5.83C15.27 5.83 15.63 6.19 15.63 6.62C15.63 6.77 15.63 6.46 15.63 6.62C15.63 7.05 15.27 7.4 14.84 7.4C12.83 7.4 7.57 7.4 5.56 7.4C5.13 7.4 4.78 7.05 4.78 6.62C4.78 6.46 4.78 6.77 4.78 6.62C4.78 6.19 5.13 5.83 5.56 5.83C7.57 5.83 12.83 5.83 14.84 5.83Z" id="fmjgQ1hE0"></path><path d="M14.84 9.47C15.27 9.47 15.63 9.82 15.63 10.25C15.63 10.41 15.63 10.09 15.63 10.25C15.63 10.68 15.27 11.03 14.84 11.03C12.83 11.03 7.57 11.03 5.56 11.03C5.13 11.03 4.78 10.68 4.78 10.25C4.78 10.09 4.78 10.41 4.78 10.25C4.78 9.82 5.13 9.47 5.56 9.47C7.57 9.47 12.83 9.47 14.84 9.47Z" id="a20aVOZj6U"></path><path d="M14.84 13.04C15.27 13.04 15.63 13.39 15.63 13.82C15.63 13.98 15.63 13.66 15.63 13.82C15.63 14.25 15.27 14.6 14.84 14.6C12.83 14.6 7.57 14.6 5.56 14.6C5.13 14.6 4.78 14.25 4.78 13.82C4.78 13.66 4.78 13.98 4.78 13.82C4.78 13.39 5.13 13.04 5.56 13.04C7.57 13.04 12.83 13.04 14.84 13.04Z" id="be7mR2n1c"></path></defs><g><g><g><use xlink:href="#b5xlGnNYP3" opacity="1" fill="#ffffff" fill-opacity="1"></use><g><use xlink:href="#b5xlGnNYP3" opacity="1" fill-opacity="0" stroke="#111111" stroke-width="0.5" stroke-opacity="1"></use></g></g><g><use xlink:href="#fmjgQ1hE0" opacity="1" fill="#000000" fill-opacity="1"></use><g><use xlink:href="#fmjgQ1hE0" opacity="1" fill-opacity="0" stroke="#111111" stroke-width="0.5" stroke-opacity="1"></use></g></g><g><use xlink:href="#a20aVOZj6U" opacity="1" fill="#000000" fill-opacity="1"></use><g><use xlink:href="#a20aVOZj6U" opacity="1" fill-opacity="0" stroke="#111111" stroke-width="0.5" stroke-opacity="1"></use></g></g><g><use xlink:href="#be7mR2n1c" opacity="1" fill="#000000" fill-opacity="1"></use><g><use xlink:href="#be7mR2n1c" opacity="1" fill-opacity="0" stroke="#111111" stroke-width="0.5" stroke-opacity="1"></use></g></g></g></g></svg>