<?xml version="1.0" encoding="UTF-8" standalone="no"?>
<!DOCTYPE svg PUBLIC "-//W3C//DTD SVG 1.1//EN" "http://www.w3.org/Graphics/SVG/1.1/DTD/svg11.dtd">
<svg version="1.1" xmlns="http://www.w3.org/2000/svg" xmlns:xlink="http://www.w3.org/1999/xlink" preserveAspectRatio="xMidYMid meet" viewBox="0 0 20 20" width="20" height="20"><defs><path d="M15.04 5.62C15.48 5.62 15.83 5.97 15.83 6.4C15.83 6.56 15.83 6.24 15.83 6.4C15.83 6.83 15.48 7.18 15.04 7.18C13.03 7.18 7.78 7.18 5.76 7.18C5.33 7.18 4.98 6.83 4.98 6.4C4.98 6.24 4.98 6.56 4.98 6.4C4.98 5.97 5.33 5.62 5.76 5.62C7.78 5.62 13.03 5.62 15.04 5.62Z" id="a9p6tupcH"></path><path d="M15.04 9.25C15.48 9.25 15.83 9.6 15.83 10.03C15.83 10.19 15.83 9.87 15.83 10.03C15.83 10.46 15.48 10.82 15.04 10.82C13.03 10.82 7.78 10.82 5.76 10.82C5.33 10.82 4.98 10.46 4.98 10.03C4.98 9.87 4.98 10.19 4.98 10.03C4.98 9.6 5.33 9.25 5.76 9.25C7.78 9.25 13.03 9.25 15.04 9.25Z" id="a1BfCUSzq"></path><path d="M15.04 12.82C15.48 12.82 15.83 13.17 15.83 13.6C15.83 13.76 15.83 13.44 15.83 13.6C15.83 14.03 15.48 14.38 15.04 14.38C13.03 14.38 7.78 14.38 5.76 14.38C5.33 14.38 4.98 14.03 4.98 13.6C4.98 13.44 4.98 13.76 4.98 13.6C4.98 13.17 5.33 12.82 5.76 12.82C7.78 12.82 13.03 12.82 15.04 12.82Z" id="addz93ayK"></path></defs><g><g><g><use xlink:href="#a9p6tupcH" opacity="1" fill="#111111" fill-opacity="1"></use><g><use xlink:href="#a9p6tupcH" opacity="1" fill-opacity="1" stroke="#111111" stroke-width="0.5" stroke-opacity="1"></use></g></g><g><use xlink:href="#a1BfCUSzq" opacity="1" fill="#111111" fill-opacity="1"></use><g><use xlink:href="#a1BfCUSzq" opacity="1" fill-opacity="1" stroke="#111111" stroke-width="0.5" stroke-opacity="1"></use></g></g><g><use xlink:href="#addz93ayK" opacity="1" fill="#111111" fill-opacity="1"></use><g><use xlink:href="#addz93ayK" opacity="1" fill-opacity="1" stroke="#111111" stroke-width="0.5" stroke-opacity="1"></use></g></g></g></g></svg>