<?xml version="1.0" encoding="UTF-8" standalone="no"?>
<!DOCTYPE svg PUBLIC "-//W3C//DTD SVG 1.1//EN" "http://www.w3.org/Graphics/SVG/1.1/DTD/svg11.dtd">
<svg version="1.1" xmlns="http://www.w3.org/2000/svg" xmlns:xlink="http://www.w3.org/1999/xlink" preserveAspectRatio="xMidYMid meet" viewBox="0 0 50 50" width="50" height="50"><defs><path d="M14.25 46.3C13.26 46.84 12.03 46.48 11.49 45.49C11.3 45.14 11.69 45.85 11.49 45.49C10.96 44.51 11.32 43.28 12.3 42.74C18.19 39.51 34.09 30.81 39.99 27.58C40.97 27.04 42.2 27.41 42.74 28.39C42.94 28.74 42.55 28.03 42.74 28.39C43.28 29.37 42.92 30.6 41.94 31.14C36.04 34.37 20.14 43.07 14.25 46.3Z" id="b6EapCiJJu"></path><path d="M41.99 23.29C42.96 23.86 43.28 25.11 42.71 26.07C42.5 26.42 42.91 25.72 42.71 26.07C42.14 27.04 40.89 27.35 39.93 26.78C34.15 23.36 18.54 14.13 12.76 10.71C11.8 10.14 11.48 8.9 12.05 7.93C12.26 7.58 11.84 8.28 12.05 7.93C12.62 6.97 13.86 6.65 14.83 7.22C20.61 10.64 36.21 19.87 41.99 23.29Z" id="ai9U7cIsp"></path><path d="M7.45 10.78C7.45 9.66 8.36 8.75 9.48 8.75C9.89 8.75 9.08 8.75 9.48 8.75C10.6 8.75 11.51 9.66 11.51 10.78C11.51 17.5 11.5 35.63 11.5 42.35C11.5 43.47 10.59 44.37 9.47 44.37C9.06 44.37 9.87 44.37 9.47 44.37C8.35 44.37 7.44 43.46 7.44 42.34C7.44 35.63 7.45 17.5 7.45 10.78Z" id="b1gdr7xNMa"></path></defs><g><g><g><use xlink:href="#b6EapCiJJu" opacity="1" fill="#ffffff" fill-opacity="1"></use><g><use xlink:href="#b6EapCiJJu" opacity="1" fill-opacity="0" stroke="#ffffff" stroke-width="0.5" stroke-opacity="1"></use></g></g><g><use xlink:href="#ai9U7cIsp" opacity="1" fill="#ffffff" fill-opacity="1"></use><g><use xlink:href="#ai9U7cIsp" opacity="1" fill-opacity="0" stroke="#ffffff" stroke-width="0.5" stroke-opacity="1"></use></g></g><g><use xlink:href="#b1gdr7xNMa" opacity="1" fill="#ffffff" fill-opacity="1"></use><g><use xlink:href="#b1gdr7xNMa" opacity="1" fill-opacity="0" stroke="#ffffff" stroke-width="0.5" stroke-opacity="1"></use></g></g></g></g></svg>