<?xml version="1.0" encoding="UTF-8" standalone="no"?>
<!DOCTYPE svg PUBLIC "-//W3C//DTD SVG 1.1//EN" "http://www.w3.org/Graphics/SVG/1.1/DTD/svg11.dtd">
<svg version="1.1" xmlns="http://www.w3.org/2000/svg" xmlns:xlink="http://www.w3.org/1999/xlink" preserveAspectRatio="xMidYMid meet" viewBox="0 0 50 50" width="50" height="50"><defs><path d="M10.92 7.28C9.8 7.29 8.88 6.39 8.86 5.27C8.86 4.87 8.87 5.68 8.86 5.27C8.85 4.15 9.75 3.23 10.87 3.22C17.13 3.15 33.88 2.96 40.14 2.89C41.26 2.87 42.18 3.77 42.19 4.89C42.2 5.3 42.19 4.49 42.19 4.89C42.2 6.01 41.31 6.93 40.19 6.94C33.93 7.01 17.18 7.21 10.92 7.28Z" id="bda8jwa9C"></path><path d="M10.62 47.51C9.5 47.52 8.59 46.62 8.57 45.5C8.57 45.1 8.58 45.91 8.57 45.5C8.56 44.38 9.46 43.46 10.58 43.45C16.84 43.38 33.59 43.19 39.85 43.12C40.97 43.1 41.89 44 41.9 45.12C41.9 45.53 41.89 44.72 41.9 45.12C41.91 46.24 41.01 47.16 39.89 47.17C33.63 47.24 16.88 47.44 10.62 47.51Z" id="g475ljR2CO"></path><path d="M43.32 10.36C43.32 9.24 44.24 8.33 45.36 8.34C45.76 8.34 44.95 8.33 45.36 8.34C46.48 8.34 47.38 9.25 47.38 10.37C47.36 16.63 47.32 33.38 47.3 39.64C47.3 40.76 46.39 41.67 45.27 41.66C44.86 41.66 45.67 41.67 45.27 41.66C44.15 41.66 43.24 40.75 43.25 39.63C43.26 33.37 43.31 16.62 43.32 10.36Z" id="ggKVnR052"></path><path d="M2.61 10.08C2.61 8.96 3.51 8.05 4.63 8.05C5.04 8.05 4.23 8.05 4.63 8.05C5.75 8.05 6.67 8.95 6.67 10.07C6.69 16.33 6.74 33.08 6.76 39.34C6.77 40.46 5.86 41.37 4.74 41.38C4.34 41.38 5.15 41.38 4.74 41.38C3.62 41.38 2.71 40.48 2.71 39.36C2.69 33.1 2.63 16.34 2.61 10.08Z" id="bBcWhh5zH"></path></defs><g><g><g><use xlink:href="#bda8jwa9C" opacity="1" fill="#ffffff" fill-opacity="1"></use><g><use xlink:href="#bda8jwa9C" opacity="1" fill-opacity="0" stroke="#ffffff" stroke-width="0.5" stroke-opacity="1"></use></g></g><g><use xlink:href="#g475ljR2CO" opacity="1" fill="#ffffff" fill-opacity="1"></use><g><use xlink:href="#g475ljR2CO" opacity="1" fill-opacity="0" stroke="#ffffff" stroke-width="0.5" stroke-opacity="1"></use></g></g><g><use xlink:href="#ggKVnR052" opacity="1" fill="#ffffff" fill-opacity="1"></use><g><use xlink:href="#ggKVnR052" opacity="1" fill-opacity="0" stroke="#ffffff" stroke-width="0.5" stroke-opacity="1"></use></g></g><g><use xlink:href="#bBcWhh5zH" opacity="1" fill="#ffffff" fill-opacity="1"></use><g><use xlink:href="#bBcWhh5zH" opacity="1" fill-opacity="0" stroke="#ffffff" stroke-width="0.5" stroke-opacity="1"></use></g></g></g></g></svg>